<svg viewBox="0 0 108 108" xmlns="http://www.w3.org/2000/svg">
  <!-- 背景圆角矩形（缩小到72x72，居中） -->
  <path fill="#2C2424" d="M18,30a12,12 0 0,1 12,-12h48a12,12 0 0,1 12,12v48a12,12 0 0,1 -12,12H30a12,12 0 0,1 -12,-12z"/>
  <!-- 左页 -->
  <path fill="#8B7B64" d="M26.262,36.435s19.869,-1.758 27.687,12.411v28.56s-10.074,-13.182 -27.687,-13.182z"/>
  <!-- 右页 -->
  <path fill="#736353" d="M81.636,36.435s-19.872,-1.758 -27.687,12.411v28.56s10.071,-13.182 27.687,-13.182z"/>
  <!-- 萤火虫光点 -->
  <path fill="#F49C0C" d="M66.108,39.759a7.995,7.995 0 1,1 15.99,0a7.995,7.995 0 0,1 -15.99,0z"/>
</svg>